<?xml version="1.0" standalone="no"?>
<!DOCTYPE svg PUBLIC "-//W3C//DTD SVG 20010904//EN"
 "http://www.w3.org/TR/2001/REC-SVG-20010904/DTD/svg10.dtd">
<svg version="1.0" xmlns="http://www.w3.org/2000/svg"
 width="996.000000pt" height="310.000000pt" viewBox="0 0 996.000000 310.000000"
 preserveAspectRatio="xMidYMid meet">

<g transform="translate(0.000000,310.000000) scale(0.100000,-0.100000)"
fill="#000000" stroke="none">
<path d="M8573 3090 c-196 -36 -366 -165 -453 -343 -22 -46 -40 -91 -40 -99 0
-9 -11 -30 -25 -46 -25 -29 -25 -30 -152 -34 -114 -4 -134 -7 -179 -31 -59
-30 -107 -83 -129 -142 -21 -55 -208 -2305 -195 -2340 22 -58 -40 -55 1275
-55 1318 0 1252 -3 1272 57 13 37 -169 2255 -191 2328 -21 68 -65 118 -134
152 -51 25 -70 28 -177 31 -79 3 -127 8 -138 17 -10 7 -31 48 -47 90 -41 109
-85 178 -163 251 -70 67 -163 120 -257 148 -68 20 -198 28 -267 16z m212 -186
c107 -27 201 -96 262 -191 18 -29 36 -66 39 -83 13 -61 21 -60 -410 -60 -215
0 -397 4 -405 9 -35 23 4 115 88 204 108 116 270 162 426 121z m778 -538 c30
-27 31 -35 52 -306 9 -107 16 -208 18 -224 2 -28 0 -29 -75 -47 -153 -36 -274
-124 -346 -251 -30 -53 -33 -63 -35 -165 l-2 -110 62 92 c108 159 208 240 340
276 37 10 68 17 70 16 2 -3 123 -1428 123 -1456 0 -8 -298 -11 -1095 -11
l-1095 0 0 23 c0 12 14 182 30 377 16 195 30 356 30 358 0 1 15 2 33 2 60 0
171 30 242 64 117 56 187 132 270 296 l28 55 13 -62 c38 -184 191 -326 381
-353 205 -29 399 75 486 258 30 63 32 74 32 177 0 103 -2 114 -31 175 -81 168
-231 260 -421 260 -224 -1 -330 -74 -521 -357 -118 -174 -202 -260 -299 -305
-57 -27 -187 -58 -196 -47 -9 10 100 1225 111 1246 7 12 20 27 30 32 11 7 316
10 878 11 l861 0 26 -24z m-769 -740 c158 -93 189 -309 65 -451 -159 -181
-443 -52 -443 200 0 132 73 237 194 276 46 15 137 3 184 -25z"/>
<path d="M325 2388 c-52 -30 -85 -89 -85 -151 0 -155 185 -232 295 -122 77 78
65 200 -27 268 -43 32 -132 34 -183 5z"/>
<path d="M755 2388 c-59 -34 -87 -89 -82 -161 4 -64 23 -98 77 -134 153 -105
342 84 237 237 -36 54 -70 73 -134 77 -47 3 -66 -1 -98 -19z"/>
<path d="M3905 2036 c-41 -18 -82 -68 -95 -117 -35 -129 85 -247 213 -209 78
22 127 87 127 167 -1 126 -130 209 -245 159z"/>
<path d="M4335 2036 c-41 -18 -82 -68 -95 -117 -43 -159 153 -285 276 -177 47
41 64 77 64 135 -1 126 -130 209 -245 159z"/>
<path d="M525 1869 c-144 -22 -255 -77 -352 -174 -184 -183 -224 -457 -103
-701 70 -144 209 -253 381 -300 98 -27 272 -25 369 5 174 53 298 155 368 302
48 101 62 162 62 277 0 280 -176 507 -445 576 -79 20 -205 27 -280 15z m238
-322 c89 -53 139 -148 140 -266 1 -139 -52 -235 -158 -286 -48 -24 -64 -27
-127 -23 -116 6 -190 54 -239 154 -21 42 -24 64 -24 149 0 84 4 107 23 146 30
61 76 107 137 136 70 34 181 29 248 -10z"/>
<path d="M2645 1864 c-90 -14 -198 -39 -255 -60 l-65 -24 7 -161 c4 -89 9
-163 11 -165 2 -2 41 10 87 27 215 78 476 74 563 -9 44 -41 50 -65 58 -232 3
-85 10 -170 14 -187 l8 -33 -329 0 c-181 0 -379 5 -439 10 -175 15 -320 59
-417 127 -37 25 -38 28 -38 84 l0 59 -52 0 c-29 0 -103 -3 -164 -7 l-112 -6
-4 -191 c-5 -204 -15 -253 -72 -350 -30 -52 -120 -138 -172 -164 -57 -29 -141
-52 -191 -52 l-43 0 0 -181 0 -182 83 6 c237 18 447 140 576 332 49 74 103
198 116 268 4 20 8 37 10 37 1 0 34 -13 72 -29 38 -16 99 -36 134 -44 162 -40
192 -42 730 -42 l526 0 60 31 c52 27 63 29 84 19 13 -7 56 -21 94 -31 65 -18
116 -19 715 -19 589 0 652 2 723 18 169 40 301 134 396 283 l47 72 34 -66 c22
-43 61 -94 109 -143 253 -254 673 -251 927 7 107 109 164 249 164 406 0 161
-57 296 -176 414 -122 121 -279 184 -459 184 -259 0 -417 -106 -640 -430 -166
-240 -273 -336 -432 -387 -64 -20 -106 -26 -232 -30 l-154 -6 7 44 c19 120 25
195 26 317 l0 132 -67 0 c-38 0 -111 -3 -164 -6 l-96 -7 -6 -141 c-5 -133 -15
-212 -38 -299 l-10 -39 -297 5 c-307 4 -342 9 -403 50 -63 42 -72 71 -80 256
-4 91 -13 184 -19 206 -47 157 -164 262 -345 311 -59 16 -341 28 -410 18z
m3487 -312 c116 -51 183 -194 159 -340 -25 -155 -128 -247 -276 -246 -58 0
-79 5 -125 29 -95 52 -150 152 -150 275 0 149 85 268 214 301 46 12 129 3 178
-19z"/>
<path d="M3185 505 c-103 -36 -144 -164 -82 -255 36 -54 70 -73 134 -77 72 -5
127 24 160 82 52 92 16 201 -82 246 -48 22 -76 23 -130 4z"/>
</g>
</svg>
