<svg id="SvgjsSvg1001" width="288" height="288" xmlns="http://www.w3.org/2000/svg" version="1.1" xmlns:xlink="http://www.w3.org/1999/xlink" xmlns:svgjs="http://svgjs.com/svgjs"><defs id="SvgjsDefs1002"></defs><g id="SvgjsG1008"><svg xmlns="http://www.w3.org/2000/svg" viewBox="0 0 1500 1500" width="288" height="288"><path fill="#000000" d="M0 0 C1.76665951 -0.00489838 3.53331581 -0.01109254 5.29996675 -0.01845789 C10.119117 -0.03476086 14.93810262 -0.03255924 19.75727069 -0.02708292 C24.96881069 -0.0244007 30.18030798 -0.03896693 35.39183044 -0.05117798 C45.5891866 -0.07218521 55.78648585 -0.07677549 65.9838611 -0.07499009 C74.27854865 -0.07367989 82.57321853 -0.07749976 90.86790276 -0.08491516 C93.26178485 -0.08701448 95.65566695 -0.08911208 98.04954904 -0.09120798 C99.83711061 -0.09277327 99.83711061 -0.09277327 101.66078454 -0.09437019 C124.17704143 -0.11325417 146.69326572 -0.11222824 169.20952725 -0.10540086 C189.77422206 -0.09982892 210.33879215 -0.12063929 230.90345783 -0.15376133 C252.05219524 -0.18755788 273.20087302 -0.20265909 294.34963793 -0.1980443 C306.20973173 -0.19580537 318.06971033 -0.20095806 329.92978096 -0.22593689 C340.02915947 -0.24702736 350.12835963 -0.25046564 360.22774566 -0.2316373 C365.37271597 -0.22252643 370.51735444 -0.22119255 375.6622982 -0.24199295 C418.77483836 -0.4045657 453.32617161 8.12301071 485.83531189 38.05456543 C489.98576397 42.21195806 493.6016624 46.73645447 497.17124939 51.39440918 C497.85058533 52.26968262 498.52992126 53.14495605 499.22984314 54.04675293 C506.8950791 64.2222416 512.77417755 74.75677101 517.42124939 86.58190918 C517.89691345 87.76309326 517.89691345 87.76309326 518.38218689 88.96813965 C523.97013755 103.80966616 525.77137832 118.92471098 525.68591309 134.66584778 C525.69125509 136.41961264 525.69833017 138.17337291 525.70696014 139.92712468 C525.72539562 144.68749333 525.71934929 149.44754686 525.70880711 154.20792758 C525.70176014 159.36487179 525.71785444 164.52175477 525.73080444 169.67868042 C525.75235889 179.7587316 525.7523395 189.83866952 525.7441789 199.91873614 C525.7378585 208.11842921 525.73903457 216.31808946 525.74545097 224.51778221 C525.74635263 225.68838453 525.74725428 226.85898684 525.74818326 228.06506195 C525.75003462 230.44375173 525.75189718 232.82244149 525.75377082 235.20113125 C525.77031973 257.46756172 525.76165514 279.73392869 525.74478524 302.00035533 C525.73009357 322.3312661 525.74471442 342.662029 525.77355541 362.99292073 C525.8030115 383.91469415 525.81390343 404.83639948 525.8043732 425.75819272 C525.80335075 428.12865808 525.80235613 430.49912346 525.80138969 432.86958885 C525.8009133 434.03563528 525.80043691 435.20168171 525.79994609 436.40306288 C525.79779002 444.58234198 525.80754299 452.76155601 525.82216072 460.94082069 C525.83975493 470.92404258 525.83946561 480.90707617 525.81680907 490.89029089 C525.80573058 495.9746577 525.80235778 501.05869362 525.82110977 506.14304543 C525.94923669 543.70507408 521.09299778 579.08939997 495.17124939 608.39440918 C494.42746033 609.24647949 493.68367126 610.0985498 492.91734314 610.97644043 C490.69949592 613.47949304 488.44696159 615.94396222 486.17124939 618.39440918 C485.6208197 618.99897949 485.07039001 619.6035498 484.50328064 620.22644043 C464.77942722 641.02171305 433.07627101 656.15725999 404.40005577 657.58174205 C399.89123056 657.6826603 395.38258027 657.67103594 390.87289429 657.66183472 C389.1273118 657.66557602 387.38173099 657.67017945 385.6361528 657.67556536 C380.86147002 657.68775159 376.08685753 657.68754007 371.31216276 657.68517661 C366.15380685 657.68476733 360.99547316 657.69581826 355.83712769 657.70529175 C345.73863517 657.72187915 335.64016601 657.72740029 325.54166102 657.7285165 C317.32887805 657.72946814 309.11610276 657.73358419 300.90332222 657.73991776 C277.59637784 657.7575247 254.28945186 657.76675759 230.98250078 657.76525681 C229.72696312 657.76517689 228.47142545 657.76509698 227.17784119 657.76501465 C225.92076263 657.76493289 224.66368407 657.76485113 223.36851222 657.76476689 C203.00531504 657.76395435 182.6421919 657.78308545 162.27901613 657.81129138 C141.34848602 657.84005337 120.41799197 657.85382982 99.4874416 657.85210383 C87.74534386 657.85144103 76.00332371 657.85688492 64.26124382 657.87845993 C54.2620073 657.89671545 44.26288355 657.90098329 34.26363754 657.88744108 C29.16770667 657.88093324 24.07199186 657.88071489 18.97608185 657.89814758 C14.29942866 657.9139806 9.62316101 657.91091136 4.94651664 657.89357932 C3.2661846 657.89053175 1.58582304 657.89405579 -0.09447414 657.90529947 C-34.85641668 658.12226455 -67.16155598 643.50415309 -91.82875061 619.39440918 C-92.67953186 618.60550293 -93.53031311 617.81659668 -94.40687561 617.00378418 C-116.52855351 595.99514668 -131.72733438 563.74911432 -132.91890872 533.07339156 C-132.95334855 530.4554832 -132.95605082 527.83938961 -132.94723511 525.2212677 C-132.94787407 524.22019889 -132.94851304 523.21913007 -132.94917136 522.18772584 C-132.95005037 518.83643435 -132.94372766 515.48519619 -132.93739319 512.13391113 C-132.93644876 509.71496022 -132.9359256 507.29600912 -132.93578911 504.87705803 C-132.93421782 498.9469272 -132.92784636 493.0168128 -132.91923751 487.08668907 C-132.91223977 482.1801669 -132.90743021 477.2736467 -132.90404701 472.36712074 C-132.90355694 471.66049556 -132.90306687 470.95387037 -132.90256195 470.2258323 C-132.90156856 468.78635009 -132.90057729 467.34686787 -132.89958812 465.90738565 C-132.88763991 449.09364884 -132.86424111 432.27993388 -132.83907455 415.46621254 C-132.82866887 408.46278947 -132.81961211 401.45936498 -132.81069243 394.45593989 C-132.76472129 358.38989932 -132.69534453 322.3239811 -132.59301567 286.25805473 C-132.58406899 283.09053433 -132.57516661 279.9230138 -132.56629944 276.75549316 C-132.56409622 275.97042724 -132.561893 275.18536131 -132.55962302 274.37650551 C-132.52341938 261.36701188 -132.49896472 248.35751908 -132.47840359 235.34799238 C-132.45660926 221.70007746 -132.42364143 208.05222352 -132.38004905 194.40436059 C-132.35391323 186.12207027 -132.33594138 177.83985454 -132.32940457 169.55752514 C-132.32413055 163.95241943 -132.30784756 158.34741124 -132.28308495 152.74235805 C-132.26921183 149.53319115 -132.2614983 146.32422977 -132.26374245 143.11502838 C-132.27218079 125.48210663 -131.56066098 108.55966482 -125.64125061 91.76940918 C-125.34081848 90.89679443 -125.04038635 90.02417969 -124.73085022 89.12512207 C-112.53483685 54.78363344 -87.61661907 27.78808013 -55.04750061 11.77331543 C-47.54292634 8.25554624 -39.8415318 5.49752027 -31.82875061 3.39440918 C-30.8778074 3.14314632 -29.92686419 2.89188346 -28.94710451 2.63300657 C-19.18358056 0.28783474 -9.99185651 -0.03463335 0 0 Z " transform="translate(553.829 263.606)" class="color5CD5C4 svgShape"></path><path fill="#545454" d="M0 0 C1.76665951 -0.00489838 3.53331581 -0.01109254 5.29996675 -0.01845789 C10.119117 -0.03476086 14.93810262 -0.03255924 19.75727069 -0.02708292 C24.96881069 -0.0244007 30.18030798 -0.03896693 35.39183044 -0.05117798 C45.5891866 -0.07218521 55.78648585 -0.07677549 65.9838611 -0.07499009 C74.27854865 -0.07367989 82.57321853 -0.07749976 90.86790276 -0.08491516 C93.26178485 -0.08701448 95.65566695 -0.08911208 98.04954904 -0.09120798 C99.83711061 -0.09277327 99.83711061 -0.09277327 101.66078454 -0.09437019 C124.17704143 -0.11325417 146.69326572 -0.11222824 169.20952725 -0.10540086 C189.77422206 -0.09982892 210.33879215 -0.12063929 230.90345783 -0.15376133 C252.05219524 -0.18755788 273.20087302 -0.20265909 294.34963793 -0.1980443 C306.20973173 -0.19580537 318.06971033 -0.20095806 329.92978096 -0.22593689 C340.02915947 -0.24702736 350.12835963 -0.25046564 360.22774566 -0.2316373 C365.37271597 -0.22252643 370.51735444 -0.22119255 375.6622982 -0.24199295 C419.54451099 -0.40746805 452.73136388 8.70261686 486.14781189 38.28894043 C488.2690096 40.49613264 489.70408372 42.71706546 491.17124939 45.39440918 C487.10553902 47.2055161 483.04179755 48.12030442 478.68687439 48.91003418 C477.19131506 49.19109675 475.69579244 49.47235463 474.20030212 49.75378418 C473.42032867 49.89880371 472.64035522 50.04382324 471.83674622 50.1932373 C427.64432502 56.07585134 427.64432502 56.07585134 391.54624939 78.70690918 C382.57707781 91.90144194 387.25017214 116.88802007 387.60874939 132.14440918 C387.716092 136.93078027 387.818301 141.71723453 387.91734314 146.50378418 C387.94033446 147.61453686 387.96332579 148.72528954 387.98701382 149.86970139 C388.16651366 159.35613028 388.20171555 168.83730847 388.18711853 178.32507324 C388.18584016 179.79887889 388.18468251 181.27268464 388.18364716 182.74649048 C388.18089835 186.29579906 388.17654375 189.84510337 388.17124939 193.39440918 C353.2129206 193.42544639 318.25459009 193.44552433 283.29624939 193.45690918 C282.00091671 193.45734348 280.70558404 193.45777779 279.37099886 193.45822525 C208.86532545 193.48122562 138.36274659 193.40798466 67.85874939 192.89440918 C67.0359464 192.88843546 66.21314341 192.88246175 65.36540699 192.87630701 C45.30056278 192.73035582 25.23584135 192.57190719 5.17124939 192.39440918 C5.17569061 191.16158707 5.18013184 189.92876495 5.18470764 188.65858459 C5.22531144 177.0209285 5.25526151 165.38328685 5.27487373 153.7455759 C5.28529562 147.7630117 5.29942575 141.78050484 5.3221283 135.79797363 C5.34391346 130.02081173 5.35583001 124.24370487 5.36100388 118.46650505 C5.36468944 116.26618522 5.37188638 114.06586828 5.3827095 111.86557198 C5.39729973 108.77559097 5.39922417 105.6858353 5.39830017 102.5958252 C5.409086 101.24175064 5.409086 101.24175064 5.42008972 99.86032104 C5.39365896 91.65240732 4.56780681 82.97305139 -0.82875061 76.39440918 C-6.44921659 71.27260992 -12.42744972 67.71578608 -19.45375061 64.89440918 C-20.39267151 64.51623047 -21.33159241 64.13805176 -22.29896545 63.74841309 C-35.38932352 58.74222136 -49.12304063 56.11617651 -62.82875061 53.39440918 C-64.02132477 53.15630524 -64.02132477 53.15630524 -65.23799133 52.91339111 C-76.42370612 50.68128196 -87.62086684 48.51224296 -98.82875061 46.39440918 C-89.59636118 27.14256599 -61.67817592 13.41054696 -42.63514709 6.65002441 C-39.05496092 5.4444237 -35.4831496 4.35357764 -31.82875061 3.39440918 C-30.8778074 3.14314632 -29.92686419 2.89188346 -28.94710451 2.63300657 C-19.18358056 0.28783474 -9.99185651 -0.03463335 0 0 Z " transform="translate(553.829 263.606)" class="color37A596 svgShape"></path><path fill="#000000" d="M0 0 C5.25105442 -0.02464928 10.50207545 -0.04283568 15.75317383 -0.05493164 C17.54094021 -0.05997218 19.32870245 -0.06680454 21.11645508 -0.07543945 C23.68051168 -0.0875173 26.24451397 -0.09323094 28.80859375 -0.09765625 C29.6127623 -0.10281754 30.41693085 -0.10797882 31.24546814 -0.11329651 C33.16401715 -0.11349215 35.08245368 -0.06201983 37 0 C38.89186983 1.89186983 38.13301759 5.2053147 38.13803101 7.71682739 C38.14085229 8.42736452 38.14367357 9.13790165 38.14658034 9.8699702 C38.15496362 12.26895579 38.15626778 14.66789546 38.15771484 17.06689453 C38.16238047 18.77980175 38.16752361 20.49270772 38.17311096 22.20561218 C38.18441397 25.90409352 38.19283761 29.60256669 38.19923019 33.30105972 C38.20988931 39.15035269 38.23012976 44.99958738 38.25234985 50.84884644 C38.31434041 67.48546675 38.36826089 84.1220844 38.40136719 100.75878906 C38.41971731 109.93967663 38.44866125 119.12046734 38.4893719 128.30128372 C38.51044123 133.16126993 38.52589901 138.02113407 38.52817917 142.88116837 C38.53032801 147.4563183 38.54622153 152.0312144 38.57256889 156.606287 C38.57975528 158.28361804 38.58186606 159.96097985 38.57846642 161.63832283 C38.57455942 163.93293767 38.58906516 166.22674672 38.60800171 168.52127075 C38.61296693 170.44540896 38.61296693 170.44540896 38.61803246 172.40841866 C39.31877775 178.99741754 41.80098983 183.74626441 47 188 C54.43819242 191.78671614 61.39795379 192.16319178 69.5625 192.203125 C70.47201416 192.20882507 71.38152832 192.21452515 72.31860352 192.22039795 C74.23485157 192.22981066 76.15111554 192.23636703 78.06738281 192.24023438 C80.99052075 192.24996843 83.9129634 192.28103846 86.8359375 192.3125 C88.70312085 192.31902833 90.5703092 192.32427947 92.4375 192.328125 C93.74086304 192.3466452 93.74086304 192.3466452 95.07055664 192.36553955 C100.12186038 192.3470761 103.64529695 191.85185716 108 189 C113.36192118 181.04956514 112.18280856 170.32372385 112.28125 161.12890625 C112.30936928 159.11563176 112.33749389 157.10235733 112.36594391 155.08908749 C112.42423993 150.86481372 112.47476951 146.64044028 112.52606201 142.41607666 C112.56878401 138.91576074 112.61331758 135.4154931 112.66296387 131.91526794 C112.69973966 129.29558605 112.73214966 126.67583871 112.7598877 124.05604553 C112.77660522 122.88069748 112.79332275 121.70534943 112.81054688 120.49438477 C112.82307495 119.45484146 112.83560303 118.41529816 112.84851074 117.34425354 C113 115 113 115 114 114 C116.65456193 113.89904436 119.28255176 113.86029002 121.9375 113.8671875 C122.732771 113.86623077 123.52804199 113.86527405 124.34741211 113.86428833 C126.0320646 113.86360657 127.71671971 113.86546057 129.40136719 113.86962891 C131.98899197 113.87497725 134.57644316 113.86968381 137.1640625 113.86328125 C138.79687539 113.86394203 140.42968816 113.8652232 142.0625 113.8671875 C143.23123657 113.86415115 143.23123657 113.86415115 144.42358398 113.86105347 C149.88504895 113.88504895 149.88504895 113.88504895 151 115 C151.1077517 116.85438703 151.14627061 118.71283283 151.15771484 120.5703125 C151.17310806 122.35852417 151.17310806 122.35852417 151.18881226 124.18286133 C151.19611359 125.48376709 151.20341492 126.78467285 151.2109375 128.125 C151.22390115 129.46965355 151.23771722 130.81429913 151.25234985 132.15893555 C151.3139405 137.87720434 151.36777759 143.59545786 151.40136719 149.31396484 C151.42245688 152.81015729 151.45788558 156.30596822 151.50212479 159.80194092 C151.52298415 161.76973295 151.528312 163.73767012 151.53329468 165.70556641 C151.69048939 177.36911227 151.69048939 177.36911227 157.0625 187.375 C166.23023605 192.44651356 176.27984648 193.35861903 186.5 191.25 C190.20152205 189.92802784 191.79357122 189.22478053 194 186 C196.46508841 178.58910114 196.33037076 171.21655594 196.37890625 163.47265625 C196.39510471 162.07399867 196.41228712 160.67535218 196.43040466 159.27671814 C196.47580902 155.61938585 196.51077406 151.96203836 196.54260254 148.30456543 C196.59476779 142.42653372 196.65949768 136.54866303 196.73081779 130.67083549 C196.75367538 128.61838642 196.76991991 126.5659583 196.78553772 124.51344299 C196.80577248 122.66032753 196.80577248 122.66032753 196.82641602 120.76977539 C196.83592789 119.67693741 196.84543976 118.58409943 196.85523987 117.45814514 C197 115 197 115 198 114 C200.65456193 113.89904436 203.28255176 113.86029002 205.9375 113.8671875 C206.732771 113.86623077 207.52804199 113.86527405 208.34741211 113.86428833 C210.0320646 113.86360657 211.71671971 113.86546057 213.40136719 113.86962891 C215.98899197 113.87497725 218.57644316 113.86968381 221.1640625 113.86328125 C222.79687539 113.86394203 224.42968816 113.8652232 226.0625 113.8671875 C227.23123657 113.86415115 227.23123657 113.86415115 228.42358398 113.86105347 C233.88504895 113.88504895 233.88504895 113.88504895 235 115 C235.11280219 116.76231571 235.15680425 118.52907946 235.17358398 120.29492188 C235.18707382 121.42700073 235.20056366 122.55907959 235.21446228 123.72546387 C235.23011986 125.5783905 235.23011986 125.5783905 235.24609375 127.46875 C235.27905369 130.06771143 235.31226495 132.66666968 235.34570312 135.265625 C235.39403747 139.37560887 235.43774022 143.48562106 235.47680664 147.59570312 C235.5150005 151.55352622 235.56822874 155.51109546 235.62109375 159.46875 C235.63371498 161.29738586 235.63371498 161.29738586 235.64659119 163.16296387 C235.74525141 176.41709513 235.74525141 176.41709513 242.11328125 187.55859375 C248.5999092 192.51421634 257.17547536 192.67835939 265 192 C269.50833134 191.32035206 273.80468651 190.44110683 277 187 C281.4466167 177.40466922 280.17981725 165.14247407 280.26036072 154.78719902 C280.28159809 152.07666637 280.30859293 149.36624303 280.33703613 146.65577698 C280.40643099 139.9365291 280.46649017 133.21720486 280.52606201 126.49786377 C280.57690964 120.79332935 280.63164475 115.08885988 280.69187927 109.38441658 C280.7184943 106.70929493 280.73926914 104.03416715 280.7598877 101.35899353 C280.77647756 99.73338521 280.79334822 98.10777973 280.81054688 96.48217773 C280.8168235 95.36099548 280.8168235 95.36099548 280.82322693 94.21716309 C280.8861331 89.1138669 280.8861331 89.1138669 282 88 C284.65456193 87.89904436 287.28255176 87.86029002 289.9375 87.8671875 C290.732771 87.86623077 291.52804199 87.86527405 292.34741211 87.86428833 C294.0320646 87.86360657 295.71671971 87.86546057 297.40136719 87.86962891 C299.98899197 87.87497725 302.57644316 87.86968381 305.1640625 87.86328125 C306.79687539 87.86394203 308.42968816 87.8652232 310.0625 87.8671875 C311.23123657 87.86415115 311.23123657 87.86415115 312.42358398 87.86105347 C317.88504895 87.88504895 317.88504895 87.88504895 319 89 C319.10188161 90.37689729 319.13517602 91.75895126 319.14044189 93.13960266 C319.14900711 94.47874474 319.14900711 94.47874474 319.15774536 95.84494019 C319.15886322 96.83237213 319.15998108 97.81980408 319.16113281 98.8371582 C319.16609772 99.87141434 319.17106262 100.90567047 319.17617798 101.9712677 C319.19085459 105.41444554 319.19761386 108.85757718 319.203125 112.30078125 C319.20887587 114.69199119 319.21463361 117.08320111 319.22039795 119.47441101 C319.23092624 124.5025555 319.23675563 129.53068392 319.24023438 134.55883789 C319.24569579 140.9799462 319.26966558 147.40083994 319.29820633 153.82188129 C319.31690719 158.76951192 319.32204247 163.7170919 319.32357025 168.66475487 C319.32658503 171.03006337 319.33457356 173.39537122 319.34775543 175.76064491 C319.36495681 179.08709149 319.36290032 182.41302801 319.35644531 185.73950195 C319.37026749 187.18725006 319.37026749 187.18725006 319.3843689 188.66424561 C319.32086526 199.19786842 317.47109684 210.1068956 310 218 C298.33234242 226.95290557 285.36428649 227.19006672 271.25 227.25 C269.45175781 227.2809375 269.45175781 227.2809375 267.6171875 227.3125 C255.8245687 227.36366104 245.210483 225.838309 236 218 C234.1414937 216.07605334 232.59349802 214.15893281 231 212 C230.63648438 212.45890625 230.27296875 212.9178125 229.8984375 213.390625 C222.7250789 222.14580114 214.59250031 225.52423041 203.45849609 226.8059082 C198.06313413 227.23185783 192.65928344 227.22703064 187.25 227.25 C185.45175781 227.2809375 185.45175781 227.2809375 183.6171875 227.3125 C172.72679616 227.35974682 161.64079372 226.23906496 153 219 C150.84455968 216.77517855 148.87508176 214.4645961 147 212 C146.29875 212.721875 145.5975 213.44375 144.875 214.1875 C143.91909368 215.12747454 142.96066259 216.06488695 142 217 C141.13375 217.845625 140.2675 218.69125 139.375 219.5625 C129.79586929 227.38874855 116.66349452 227.15751502 104.96875 227.203125 C103.81942993 227.20882507 102.67010986 227.21452515 101.48596191 227.22039795 C99.05868439 227.22981365 96.63139427 227.23636823 94.20410156 227.24023438 C90.53947876 227.24989592 86.87542794 227.28093508 83.2109375 227.3125 C48.30151425 227.47265678 48.30151425 227.47265678 38 218 C36.61973133 216.3719908 35.26438322 214.71956118 34 213 C33.34 213 32.68 213 32 213 C31.12366724 214.02732253 30.29862789 215.09867302 29.5 216.1875 C22.91247848 224.04797254 13.78652832 225.92180592 4 227 C-1.62418019 227.2803616 -7.23707128 227.30653941 -12.8671875 227.30078125 C-14.47559721 227.30468077 -16.08400591 227.30901796 -17.69241333 227.31376648 C-21.04579014 227.32117913 -24.39906158 227.32097369 -27.75244141 227.31567383 C-32.01069715 227.30988484 -36.26851713 227.32682064 -40.52670097 227.3500185 C-43.84366295 227.36488078 -47.16052297 227.36561075 -50.47751236 227.36250877 C-52.04570503 227.3630157 -53.6139044 227.36813257 -55.18206406 227.37832069 C-68.79581959 227.45593918 -83.18048947 227.2425332 -93.671875 217.4375 C-97.66439155 213.16827438 -99.91176364 208.4171308 -102 203 C-102.53625 203.38671875 -103.0725 203.7734375 -103.625 204.171875 C-118.12406234 213.80612037 -136.60235036 215.27131201 -153.47265625 212.3046875 C-169.77774354 208.87515484 -183.22632831 200.79028476 -192.46875 186.73046875 C-203.20288039 167.58976175 -203.68097271 143.8605318 -198 123 C-193.25184125 108.62082421 -184.96575071 96.82411372 -171.63671875 89.3125 C-160.48120749 83.75953439 -149.34061696 81.67081712 -136.9609375 81.8046875 C-135.45063461 81.80893234 -135.45063461 81.80893234 -133.90982056 81.81326294 C-130.73141999 81.82435171 -127.55331368 81.84943457 -124.375 81.875 C-122.20443119 81.88504443 -120.0338579 81.8941677 -117.86328125 81.90234375 C-112.57542245 81.92425384 -107.28773226 81.95761664 -102 82 C-102.01160156 80.78441406 -102.02320313 79.56882812 -102.03515625 78.31640625 C-102.04453278 76.73177236 -102.05363313 75.14713682 -102.0625 73.5625 C-102.07087891 72.76005859 -102.07925781 71.95761719 -102.08789062 71.13085938 C-102.0965143 69.08704779 -102.0522815 67.04316098 -102 65 C-100.00615221 63.00615221 -96.04694988 63.83606046 -93.31640625 63.83203125 C-92.54570297 63.82870285 -91.77499969 63.82537445 -90.98094177 63.82194519 C-89.34757079 63.8168729 -87.7141894 63.81453696 -86.08081055 63.81469727 C-83.57648701 63.8125122 -81.07260479 63.79436405 -78.56835938 63.77539062 C-76.98437651 63.77245653 -75.40039155 63.77047184 -73.81640625 63.76953125 C-73.0642836 63.76234573 -72.31216095 63.75516022 -71.5372467 63.74775696 C-66.22882279 63.77117721 -66.22882279 63.77117721 -64 66 C-63.74666691 68.05656815 -63.74666691 68.05656815 -63.74171448 70.64190674 C-63.73488647 71.62044113 -63.72805847 72.59897552 -63.72102356 73.60716248 C-63.72357651 74.68458206 -63.72612946 75.76200165 -63.72875977 76.87207031 C-63.72353302 78.00389236 -63.71830627 79.13571442 -63.71292114 80.30183411 C-63.70265775 82.76653908 -63.69689669 85.23126587 -63.69503975 87.69599152 C-63.69138945 91.5960765 -63.67469854 95.49590412 -63.65428162 99.39593506 C-63.60506305 109.08651849 -63.57423871 118.77715056 -63.55297852 128.46783447 C-63.53500462 136.64644321 -63.50560266 144.82481964 -63.45893669 153.00331879 C-63.44727854 155.58846869 -63.44135627 158.17365102 -63.44125557 160.75882721 C-63.44106362 164.37619437 -63.42280249 167.99306194 -63.40063477 171.61035156 C-63.40521194 172.67967422 -63.40978912 173.74899689 -63.414505 174.85072327 C-63.36165564 180.27277572 -63.20061988 184.38943798 -60 189 C-54.60232095 192.22177157 -49.77582944 192.44319752 -43.59375 192.3984375 C-42.71021851 192.40130768 -41.82668701 192.40417786 -40.91638184 192.40713501 C-39.05736649 192.40916701 -37.19832933 192.4036979 -35.33935547 192.39111328 C-32.50829861 192.37504709 -29.67866918 192.39099126 -26.84765625 192.41015625 C-25.03385104 192.40817366 -23.22004672 192.40432967 -21.40625 192.3984375 C-20.14814514 192.40754654 -20.14814514 192.40754654 -18.86462402 192.4168396 C-13.50954244 192.35335905 -9.74465702 191.53675489 -5 189 C-0.64036413 183.62311576 -0.87463368 177.17579345 -0.84178162 170.52090454 C-0.83684364 169.78890567 -0.83190566 169.0569068 -0.82681805 168.30272615 C-0.81151761 165.86148758 -0.80310276 163.42027515 -0.79467773 160.97900391 C-0.78509334 159.2244443 -0.77508293 157.46988697 -0.76467896 155.71533203 C-0.73768463 150.95965528 -0.71664548 146.20396867 -0.69667697 141.44825792 C-0.67478361 136.47544597 -0.64741133 131.50266425 -0.62062073 126.52987671 C-0.57073911 117.11652897 -0.52578349 107.70316442 -0.48259836 98.28978384 C-0.43318724 87.57156989 -0.37828349 76.85338628 -0.32291877 66.13520169 C-0.20916829 44.09016274 -0.10231418 22.0450948 0 0 Z M-156.6875 125.75 C-163.02028806 134.65013457 -163.99855837 145.64063997 -162.7265625 156.2890625 C-161.42049694 163.4601017 -158.31674573 168.63060096 -153.25 173.8125 C-144.78062473 179.51304105 -136.049689 179.94610043 -126 179 C-117.27457812 177.03994146 -112.27075856 173.52666551 -107.3125 166.125 C-100.83487634 155.24096777 -101.85860327 142.11006167 -101.9375 129.875 C-101.94252861 128.52343917 -101.94708909 127.17187652 -101.95117188 125.8203125 C-101.96286289 122.54682735 -101.97924971 119.27343814 -102 116 C-106.94381496 115.92518672 -111.88729189 115.87108846 -116.83154297 115.83520508 C-118.50933583 115.82022766 -120.18709028 115.79983846 -121.86474609 115.77368164 C-135.18043458 115.57144813 -146.75965432 115.59127419 -156.6875 125.75 Z " transform="translate(692 1010)" class="color5CD5C4 svgShape"></path><path fill="#fdfefe" d="M0 0 C0.79921875 -0.03738281 1.5984375 -0.07476563 2.421875 -0.11328125 C9.6147817 0.96962874 14.44148944 5.03260416 19.1875 10.25 C30.8194619 22.38138798 44.31227862 31.71533321 59.25 39.3125 C60.26247803 39.83602051 60.26247803 39.83602051 61.29541016 40.37011719 C91.37425177 55.7824162 122.98928703 60.02279426 156.25 55.3125 C157.15202148 55.19422852 158.05404297 55.07595703 158.98339844 54.95410156 C194.92657721 50.17060368 225.77505139 35.91328463 252.0625 10.9375 C257.94525936 5.40166359 263.4231132 0.25021897 271.8125 -0.25 C277.55700738 0.14030625 282.1442852 1.99621372 286.046875 6.2890625 C290.11809319 11.62041965 292.10217969 15.42615304 291.25 22.3125 C288.99740801 29.02770868 284.47892221 33.71311164 279.5 38.5625 C278.74920166 39.30048828 277.99840332 40.03847656 277.22485352 40.79882812 C244.96429846 71.92037773 201.09818377 87.33583524 157.25 92.3125 C156.16847656 92.44398438 155.08695313 92.57546875 153.97265625 92.7109375 C118.50093697 96.2343029 83.77453528 90.88928278 51.25 76.3125 C50.52312988 75.99700195 49.79625977 75.68150391 49.04736328 75.35644531 C28.23227097 66.31048085 8.93107751 53.78782669 -7.63671875 38.25 C-9.78494917 36.23179118 -9.78494917 36.23179118 -12.375 34.24609375 C-16.66104469 30.75663303 -18.47042067 27.57737497 -19.13671875 22.1796875 C-19.30203071 17.17472552 -19.25109922 13.39179063 -17.125 8.8125 C-11.80908888 3.21680409 -7.87785032 0.23834261 0 0 Z " transform="translate(616.75 663.688)" class="colorFDFEFE svgShape"></path><path fill="#8a8a8a" d="M0 0 C10.40797957 11.39664775 17.69772203 25.03862786 23.3125 39.3125 C23.62590332 40.09238281 23.93930664 40.87226563 24.26220703 41.67578125 C30.61702212 58.6310121 31.54935739 75.25288573 31.25 93.1875 C31.22987171 95.31704019 31.21163232 97.4465991 31.1953125 99.57617188 C31.15189353 104.7179232 31.08322808 109.85874537 31 115 C29.72723717 113.09085576 28.4930135 111.15502251 27.3125 109.1875 C16.44970118 94.21445298 -4.15127743 90.55767253 -21 86 C-21.85174805 85.76539063 -22.70349609 85.53078125 -23.58105469 85.2890625 C-31.70724105 83.05098768 -39.84870889 81.01302086 -48.08740234 79.23144531 C-95.36995493 68.94506761 -95.36995493 68.94506761 -106 53 C-106.66 54.32 -107.32 55.64 -108 57 C-108.04269949 35.84850082 -108.04269949 35.84850082 -102.84375 29.7421875 C-102.2353125 29.16726563 -101.626875 28.59234375 -101 28 C-100.05640625 27.07574219 -100.05640625 27.07574219 -99.09375 26.1328125 C-92.9142865 20.76036849 -85.62802218 17.75879516 -78 15 C-77.35385742 14.76458496 -76.70771484 14.52916992 -76.04199219 14.28662109 C-59.83650369 8.56726751 -42.73200253 5.64643404 -25.90437317 2.36645508 C-22.1264027 1.6299751 -18.35979088 0.86785681 -14.60400391 0.02490234 C-13.917845 -0.12505692 -13.2316861 -0.27501617 -12.5247345 -0.42951965 C-10.68021416 -0.83483933 -8.83863287 -1.25346993 -6.99731445 -1.6730957 C-3.77272087 -2.02478836 -2.60890346 -1.84653288 0 0 Z " transform="translate(1048 311)" class="color5CD4C4 svgShape"></path><path fill="#8a8a8a" d="M0 0 C0.82133423 0.16385193 1.64266846 0.32770386 2.4888916 0.496521 C5.1374853 1.02757659 7.78371674 1.56931719 10.4296875 2.11328125 C11.33273621 2.29762726 12.23578491 2.48197327 13.16619873 2.67190552 C18.46510339 3.7542222 23.76079889 4.8511939 29.0546875 5.95776367 C30.99360106 6.36107284 32.93415359 6.75648799 34.875 7.15039062 C44.96832898 9.20767206 54.47070764 11.99671531 64.0546875 15.80078125 C64.94881348 16.15197021 65.84293945 16.50315918 66.76416016 16.86499023 C75.57388617 20.55662953 84.10912287 26.034652 88.4921875 34.80078125 C90.25196455 40.48621478 90.42818524 46.19161875 90.41821289 52.10522461 C90.41835892 52.83776459 90.41850494 53.57030457 90.4186554 54.32504272 C90.41796436 56.72193468 90.41021026 59.11874679 90.40234375 61.515625 C90.40047669 63.18713844 90.39905415 64.85865244 90.39805603 66.53016663 C90.39425353 70.91132134 90.38444279 75.29244246 90.37335205 79.67358398 C90.363089 84.15152533 90.35854796 88.62947214 90.35351562 93.10742188 C90.34281833 101.88022368 90.32576937 110.65299828 90.3046875 119.42578125 C89.9746875 119.42578125 89.6446875 119.42578125 89.3046875 119.42578125 C88.9746875 97.64578125 88.6446875 75.86578125 88.3046875 53.42578125 C86.9846875 55.07578125 85.6646875 56.72578125 84.3046875 58.42578125 C65.86941325 73.69540235 37.47126414 77.87053096 14.7265625 82.87890625 C-18.61691201 89.47742259 -18.61691201 89.47742259 -44.6953125 109.42578125 C-45.69395872 110.76012884 -46.69379203 112.09358963 -47.6953125 113.42578125 C-47.77072561 107.91636996 -47.82449591 102.40727352 -47.86010742 96.89746094 C-47.87498753 95.03184767 -47.89529808 93.16626802 -47.92163086 91.30078125 C-48.14609784 74.96310588 -46.98004084 59.32261652 -41.5078125 43.80078125 C-41.20738037 42.9281665 -40.90694824 42.05555176 -40.59741211 41.15649414 C-36.01109238 28.24235227 -29.75806609 16.51837961 -21.6953125 5.42578125 C-21.17066406 4.66910156 -20.64601563 3.91242188 -20.10546875 3.1328125 C-19.37650391 2.16408203 -19.37650391 2.16408203 -18.6328125 1.17578125 C-18.22933594 0.634375 -17.82585937 0.09296875 -17.41015625 -0.46484375 C-12.6860423 -3.52099036 -5.22232401 -1.07598564 0 0 Z " transform="translate(469.695 311.574)" class="color5CD4C3 svgShape"></path><path fill="#ffffff" d="M0 0 C0.78213867 0.78842285 1.56427734 1.5768457 2.37011719 2.38916016 C19.51150885 19.40643108 46.90212536 23.66634015 69.5 29 C124.40105865 41.96616931 124.40105865 41.96616931 136 58 C138.2085281 62.01550564 138.25725662 64.59960184 137 69 C131.26075835 80.01934396 120.05811664 83.36224617 109 87 C108.25468018 87.25330078 107.50936035 87.50660156 106.74145508 87.76757812 C99.74474566 90.02655435 92.70890854 91.12782384 85.4375 92.125 C84.28958984 92.29386719 83.14167969 92.46273437 81.95898438 92.63671875 C64.84684965 95.04474214 47.80271568 95.16152026 30.55566406 95.13037109 C26.95113074 95.12492618 23.34671746 95.1303916 19.7421875 95.13671875 C17.45312472 95.13605937 15.16406202 95.13478111 12.875 95.1328125 C11.79605469 95.13483673 10.71710937 95.13686096 9.60546875 95.13894653 C8.61933594 95.13579437 7.63320313 95.13264221 6.6171875 95.12939453 C5.74690918 95.12859894 4.87663086 95.12780334 3.97998047 95.12698364 C2 95 2 95 1 94 C0.5981669 89.95443414 0.56245249 85.87461043 0.4375 81.8125 C0.41632111 81.15725342 0.39514221 80.50200684 0.37332153 79.8269043 C-0.45449783 53.23952448 -0.08369454 26.59702416 0 0 Z " transform="translate(941 363)" class="colorD5FEF6 svgShape"></path><path fill="#ffffff" d="M0 0 C0.33 0 0.66 0 1 0 C1.02312178 12.10841944 1.04091424 24.21683367 1.05181217 36.32527065 C1.05704136 41.94707962 1.06413966 47.56887353 1.07543945 53.19067383 C1.08626706 58.61118277 1.09227656 64.0316772 1.09487724 69.45219612 C1.09673172 71.52514945 1.10035277 73.59810194 1.10573006 75.67104912 C1.1129388 78.56383893 1.11399101 81.45656796 1.11352539 84.34936523 C1.11712067 85.21538864 1.12071594 86.08141205 1.12442017 86.97367859 C1.11405216 92.88594784 1.11405216 92.88594784 0 94 C-1.66174017 94.10937489 -3.32811602 94.1490837 -4.9934082 94.16113281 C-6.06416092 94.17074036 -7.13491364 94.1803479 -8.2381134 94.19024658 C-9.41379379 94.19449646 -10.58947418 94.19874634 -11.80078125 94.203125 C-13.63010445 94.21167511 -13.63010445 94.21167511 -15.49638367 94.22039795 C-18.10345589 94.2298836 -20.7105403 94.23639596 -23.31762695 94.24023438 C-27.20222175 94.24973042 -31.08623767 94.28062542 -34.97070312 94.3125 C-109.48418408 94.62626604 -109.48418408 94.62626604 -130.1953125 74.91015625 C-135.7598537 68.6810241 -135.7598537 68.6810241 -136.375 64.375 C-135.59478116 57.35303043 -130.85588069 52.08477654 -125.52734375 47.71875 C-107.9441174 35.76106902 -85.51780994 32.07886756 -65.19630432 27.37687683 C-29.01712906 20.27220967 -29.01712906 20.27220967 0 0 Z " transform="translate(558 364)" class="colorD5FEF6 svgShape"></path><path fill="#fdfefe" d="M0 0 C13.22998462 7.41527469 22.98391922 18.60423103 27.67578125 33.140625 C28.61910923 36.97289493 28.84410734 39.74057337 28.30078125 43.6796875 C26.50714214 46.4897221 25.2819719 48.18909218 22.30078125 49.6796875 C14.26266208 50.48985366 9.45730291 48.24564137 2.55078125 44.3046875 C0.72367115 43.2950362 -1.10442229 42.28716194 -2.93359375 41.28125 C-3.72991211 40.83088379 -4.52623047 40.38051758 -5.34667969 39.91650391 C-10.62294844 37.14257515 -14.95024042 36.34075616 -20.88671875 36.3671875 C-21.59119141 36.35107422 -22.29566406 36.33496094 -23.02148438 36.31835938 C-33.29216093 36.30906465 -41.86679543 40.4769689 -50.82421875 45.1171875 C-51.76136719 45.59478516 -52.69851563 46.07238281 -53.6640625 46.56445312 C-57.13128239 48.33200788 -60.59463261 50.10673938 -64.04931641 51.89868164 C-71.19661777 55.56063117 -71.19661777 55.56063117 -75.69921875 54.6796875 C-78.61471567 52.829337 -81.12905819 50.82000863 -82.69921875 47.6796875 C-82.28110885 34.50922558 -74.68673121 21.27148674 -65.859375 11.6875 C-57.55171258 3.96573059 -48.46186324 -0.8059796 -37.69921875 -4.3203125 C-25.78745157 -8.29090156 -10.9209515 -5.34194154 0 0 Z " transform="translate(918.7 551.32)" class="colorFDFEFE svgShape"></path><path fill="#fdfefe" d="M0 0 C9.19490052 7.34860837 17.30862653 19.65763969 19.09375 31.33203125 C19.32332753 34.99061788 19.50437421 38.05436524 17.546875 41.25 C15.06236484 43.60795335 12.8587115 44.41839497 9.5078125 44.85546875 C4.38346965 44.31032589 0.93529131 42.24432587 -3.47265625 39.6953125 C-15.21056609 33.23991494 -26.84657231 27.83642898 -40.4765625 31.22265625 C-49.51971826 34.16718321 -57.76610659 38.61222805 -66.09765625 43.140625 C-67.1961792 43.73556763 -67.1961792 43.73556763 -68.31689453 44.3425293 C-70.07688526 45.29827324 -71.83366246 46.25993036 -73.58984375 47.22265625 C-77.87137008 49.12084002 -81.75592083 49.13052859 -86.34765625 48.4453125 C-88.91015625 46.9453125 -88.91015625 46.9453125 -90.34765625 44.4453125 C-92.64160347 35.57538324 -89.59730853 28.39539338 -85.34765625 20.5703125 C-76.08782745 5.42318202 -62.59334277 -5.68782015 -45.47265625 -10.8671875 C-29.19482788 -14.32207352 -13.49924927 -8.93960268 0 0 Z " transform="translate(643.348 556.555)" class="colorFDFEFE svgShape"></path><path fill="#000000" d="M0 0 C0.71353638 0.00202423 1.42707275 0.00404846 2.16223145 0.00613403 C2.89091431 0.00517731 3.61959717 0.00422058 4.37036133 0.00323486 C5.91377855 0.00255318 7.45719861 0.00440666 9.00061035 0.00857544 C11.37095544 0.01392391 13.74111104 0.00863011 16.1114502 0.00222778 C17.60754437 0.00288857 19.10363842 0.00416973 20.59973145 0.00613403 C21.31326782 0.0041098 22.0268042 0.00208557 22.76196289 0 C27.76602953 0.02399462 27.76602953 0.02399462 28.88098145 1.13894653 C28.98185356 3.64818807 29.02070177 6.12931037 29.01379395 8.63894653 C29.01475067 9.38982544 29.0157074 10.14070435 29.01669312 10.91433716 C29.01737483 12.5048328 29.01552116 14.09533121 29.01135254 15.68582153 C29.00600411 18.12859308 29.01129778 20.57118075 29.0177002 23.01394653 C29.01703941 24.55561361 29.01575825 26.09728057 29.01379395 27.63894653 C29.01581818 28.37435669 29.01784241 29.10976685 29.01992798 29.86746216 C28.99593305 35.02399493 28.99593305 35.02399493 27.88098145 36.13894653 C25.44437699 36.23977417 23.03673444 36.27867257 20.59973145 36.27175903 C19.87104858 36.27271576 19.14236572 36.27367249 18.39160156 36.2746582 C16.84818435 36.27533989 15.30476428 36.27348641 13.76135254 36.26931763 C11.39100745 36.26396916 9.02085185 36.26926295 6.6505127 36.27566528 C5.15441852 36.2750045 3.65832447 36.27372333 2.16223145 36.27175903 C1.09192688 36.27479538 1.09192688 36.27479538 0 36.27789307 C-5.00406664 36.25389845 -5.00406664 36.25389845 -6.11901855 35.13894653 C-6.21989067 32.629705 -6.25873888 30.14858269 -6.25183105 27.63894653 C-6.25278778 26.88806763 -6.25374451 26.13718872 -6.25473022 25.36355591 C-6.25541194 23.77306027 -6.25355827 22.18256186 -6.24938965 20.59207153 C-6.24404122 18.14929999 -6.24933489 15.70671232 -6.2557373 13.26394653 C-6.25507652 11.72227946 -6.25379536 10.1806125 -6.25183105 8.63894653 C-6.25385529 7.90353638 -6.25587952 7.16812622 -6.25796509 6.41043091 C-6.22990923 0.38120035 -6.04595781 0.02899051 0 0 Z " transform="translate(572.119 1015.861)" class="color5CD5C4 svgShape"></path><path fill="#000000" d="M0 0 C0.71353638 0.00202423 1.42707275 0.00404846 2.16223145 0.00613403 C2.89091431 0.00517731 3.61959717 0.00422058 4.37036133 0.00323486 C5.91377855 0.00255318 7.45719861 0.00440666 9.00061035 0.00857544 C11.37095544 0.01392391 13.74111104 0.00863011 16.1114502 0.00222778 C17.60754437 0.00288857 19.10363842 0.00416973 20.59973145 0.00613403 C21.31326782 0.0041098 22.0268042 0.00208557 22.76196289 0 C27.76602953 0.02399462 27.76602953 0.02399462 28.88098145 1.13894653 C28.98185356 3.64818807 29.02070177 6.12931037 29.01379395 8.63894653 C29.01475067 9.38982544 29.0157074 10.14070435 29.01669312 10.91433716 C29.01737483 12.5048328 29.01552116 14.09533121 29.01135254 15.68582153 C29.00600411 18.12859308 29.01129778 20.57118075 29.0177002 23.01394653 C29.01703941 24.55561361 29.01575825 26.09728057 29.01379395 27.63894653 C29.01581818 28.37435669 29.01784241 29.10976685 29.01992798 29.86746216 C28.99593305 35.02399493 28.99593305 35.02399493 27.88098145 36.13894653 C25.44437699 36.23977417 23.03673444 36.27867257 20.59973145 36.27175903 C19.87104858 36.27271576 19.14236572 36.27367249 18.39160156 36.2746582 C16.84818435 36.27533989 15.30476428 36.27348641 13.76135254 36.26931763 C11.39100745 36.26396916 9.02085185 36.26926295 6.6505127 36.27566528 C5.15441852 36.2750045 3.65832447 36.27372333 2.16223145 36.27175903 C1.09192688 36.27479538 1.09192688 36.27479538 0 36.27789307 C-5.00406664 36.25389845 -5.00406664 36.25389845 -6.11901855 35.13894653 C-6.21989067 32.629705 -6.25873888 30.14858269 -6.25183105 27.63894653 C-6.25278778 26.88806763 -6.25374451 26.13718872 -6.25473022 25.36355591 C-6.25541194 23.77306027 -6.25355827 22.18256186 -6.24938965 20.59207153 C-6.24404122 18.14929999 -6.24933489 15.70671232 -6.2557373 13.26394653 C-6.25507652 11.72227946 -6.25379536 10.1806125 -6.25183105 8.63894653 C-6.25385529 7.90353638 -6.25587952 7.16812622 -6.25796509 6.41043091 C-6.22990923 0.38120035 -6.04595781 0.02899051 0 0 Z " transform="translate(529.119 1015.861)" class="color5CD5C4 svgShape"></path></svg></g></svg>