<?xml version="1.0" standalone="no"?>
<!DOCTYPE svg PUBLIC "-//W3C//DTD SVG 20010904//EN"
 "http://www.w3.org/TR/2001/REC-SVG-20010904/DTD/svg10.dtd">
<svg version="1.0" xmlns="http://www.w3.org/2000/svg"
 width="2481.000000pt" height="1897.000000pt" viewBox="0 0 2481.000000 1897.000000"
 preserveAspectRatio="xMidYMid meet">

<g transform="translate(0.000000,1897.000000) scale(0.100000,-0.100000)"
fill="#000000" stroke="none">
<path d="M16065 14406 c-206 -58 -344 -165 -425 -331 -46 -93 -62 -167 -67
-316 -18 -473 124 -1027 375 -1453 l41 -70 -42 -50 c-72 -87 -208 -225 -295
-299 l-84 -71 -42 24 c-22 13 -113 60 -201 105 -403 205 -826 303 -1265 293
-167 -4 -192 -7 -258 -31 -103 -36 -174 -81 -245 -157 -173 -182 -227 -456
-138 -699 73 -200 237 -347 441 -395 88 -21 394 -21 560 -1 370 46 716 158
1032 335 108 61 110 61 136 44 42 -28 290 -274 345 -343 46 -58 49 -65 37 -85
-182 -290 -317 -655 -382 -1031 -18 -110 -22 -169 -22 -380 -1 -249 -1 -250
27 -333 125 -363 555 -525 924 -346 170 82 289 236 329 424 20 95 14 461 -11
620 -52 340 -182 709 -356 1012 l-33 56 40 49 c70 86 207 224 296 299 l88 73
77 -46 c406 -242 925 -383 1406 -383 149 0 249 20 356 71 249 118 394 424 337
709 -22 105 -52 181 -104 258 -81 119 -212 209 -362 249 -80 22 -387 24 -550
4 -395 -48 -770 -174 -1107 -370 l-52 -31 -63 52 c-81 67 -261 249 -316 320
l-42 55 41 69 c103 169 217 434 279 646 84 293 132 722 101 918 -41 258 -185
433 -426 516 -67 23 -100 28 -205 31 -86 2 -141 -2 -175 -11z m284 -387 c56
-25 96 -61 124 -114 20 -37 22 -54 21 -230 -1 -346 -69 -649 -222 -977 -25
-54 -48 -98 -52 -98 -4 0 -30 51 -58 113 -146 328 -206 604 -207 947 0 191 1
208 22 245 68 127 231 177 372 114z m123 -2513 c-87 -80 -101 -95 -190 -189
l-63 -66 -168 168 -168 168 86 79 c47 44 122 117 166 164 l80 85 167 -169 168
-168 -78 -72z m-2072 338 c220 -28 462 -98 672 -194 66 -30 121 -59 120 -65 0
-14 -186 -96 -324 -143 -245 -85 -480 -124 -748 -126 -173 -1 -176 -1 -228 27
-112 59 -167 201 -128 331 31 102 103 168 203 186 61 11 284 3 433 -16z m4095
-5 c63 -18 118 -62 150 -121 27 -48 30 -62 30 -143 0 -79 -4 -97 -28 -143 -31
-59 -89 -106 -151 -123 -64 -18 -386 -5 -531 20 -238 42 -435 104 -639 201
l-101 48 95 45 c248 117 541 196 815 220 97 9 324 6 360 -4z m-2219 -1400
c120 -268 182 -520 205 -834 16 -229 2 -324 -57 -393 -59 -69 -103 -87 -214
-87 -110 0 -152 17 -212 83 -56 62 -63 95 -62 277 3 333 72 637 216 961 28 63
56 113 62 111 6 -2 34 -55 62 -118z"/>
<path d="M12045 11390 c-245 -32 -463 -215 -541 -453 -23 -70 -27 -100 -28
-202 0 -89 4 -136 18 -179 65 -217 230 -387 441 -458 59 -19 90 -23 200 -23
110 0 141 4 200 23 211 71 376 241 441 458 14 43 18 90 18 179 -1 150 -29 246
-104 359 -113 168 -277 271 -473 296 -81 11 -88 11 -172 0z"/>
<path d="M7605 9639 c-265 -20 -456 -112 -529 -257 -14 -28 -36 -86 -48 -129
-20 -70 -23 -99 -22 -273 1 -173 22 -401 39 -418 2 -3 51 3 107 11 194 30 365
40 593 34 354 -10 596 -63 840 -184 253 -126 412 -277 511 -486 79 -168 96
-317 92 -817 l-3 -355 -1272 -3 -1273 -2 0 -530 0 -530 1816 0 1815 0 -4 1023
c-3 900 -6 1036 -21 1137 -106 718 -464 1232 -1061 1526 -290 142 -583 221
-950 254 -127 11 -469 11 -630 -1z"/>
<path d="M12109 9420 c-235 -30 -391 -122 -472 -278 -38 -74 -49 -104 -74
-207 -15 -64 -17 -222 -23 -1795 -6 -1913 0 -1763 -71 -1908 -94 -193 -330
-237 -779 -145 -69 15 -136 27 -149 27 -23 1 -26 -8 -136 -499 l-112 -500 30
-13 c50 -22 270 -80 405 -107 367 -73 739 -73 1007 -1 523 142 843 533 949
1161 34 204 36 312 36 2272 l0 1951 -27 6 c-151 32 -464 52 -584 36z"/>
</g>
</svg>
